<svg xmlns="http://www.w3.org/2000/svg" viewBox="0 0 24 24" width="60" height="60">
  <defs>
    <linearGradient id="awsGradient" x1="0%" y1="0%" x2="100%" y2="100%">
      <stop offset="0%" style="stop-color:#FF9900;stop-opacity:1" />
      <stop offset="100%" style="stop-color:#FF6600;stop-opacity:1" />
    </linearGradient>
  </defs>
  <rect width="24" height="24" rx="3" fill="url(#awsGradient)"/>
  <path d="M6 8.5c0-.8.7-1.5 1.5-1.5h9c.8 0 1.5.7 1.5 1.5v7c0 .8-.7 1.5-1.5 1.5h-9c-.8 0-1.5-.7-1.5-1.5v-7z" fill="white"/>
  <path d="M8 10h8v1H8v-1zm0 2h6v1H8v-1zm0 2h4v1H8v-1z" fill="#FF9900"/>
  <circle cx="16" cy="14" r="1" fill="#FF6600"/>
</svg>
